<svg width="37" height="37" viewBox="0 0 37 37" fill="none" xmlns="http://www.w3.org/2000/svg">
<circle cx="18.28" cy="18.28" r="18.28" fill="#5069D3"/>
<path d="M11.5913 21.6815H8.24744C7.62046 21.6815 7.13281 22.204 7.13281 22.7961V26.14C7.13281 26.767 7.62046 27.2547 8.24744 27.2547H11.5913C12.1835 27.2547 12.706 26.767 12.706 26.14V22.7961C12.706 22.204 12.1835 21.6815 11.5913 21.6815ZM10.7554 18.8949H17.4432V20.5669H19.1151V18.8949H25.8029V20.5669H27.4748V18.5814C27.4748 17.85 26.8479 17.223 26.1164 17.223H19.1151V14.9937H20.5084C21.1005 14.9937 21.623 14.5061 21.623 13.8791V10.5352C21.623 9.94303 21.1005 9.42055 20.5084 9.42055H16.0499C15.4229 9.42055 14.9352 9.94303 14.9352 10.5352V13.8791C14.9352 14.5061 15.4229 14.9937 16.0499 14.9937H17.4432V17.223H10.407C9.67557 17.223 9.08342 17.85 9.08342 18.5814V20.5669H10.7554V18.8949ZM19.9511 21.6815H16.6072C15.9802 21.6815 15.4925 22.204 15.4925 22.7961V26.14C15.4925 26.767 15.9802 27.2547 16.6072 27.2547H19.9511C20.5432 27.2547 21.0657 26.767 21.0657 26.14V22.7961C21.0657 22.204 20.5432 21.6815 19.9511 21.6815ZM28.3108 21.6815H24.9669C24.3399 21.6815 23.8523 22.204 23.8523 22.7961V26.14C23.8523 26.767 24.3399 27.2547 24.9669 27.2547H28.3108C28.903 27.2547 29.4254 26.767 29.4254 26.14V22.7961C29.4254 22.204 28.903 21.6815 28.3108 21.6815Z" fill="white"/>
</svg>
